<?xml version="1.0" standalone="yes"?>

<svg version="1.1" viewBox="0.0 0.0 364.8005249343832 48.0" fill="none" stroke="none" stroke-linecap="square" stroke-miterlimit="10" xmlns="http://www.w3.org/2000/svg" xmlns:xlink="http://www.w3.org/1999/xlink"><clipPath id="p.0"><path d="m0 0l364.80054 0l0 48.0l-364.80054 0l0 -48.0z" clip-rule="nonzero"></path></clipPath><g clip-path="url(#p.0)"><path fill="#000000" fill-opacity="0.0" d="m0 0l364.80054 0l0 48.0l-364.80054 0z" fill-rule="evenodd"></path><g filter="url(#shadowFilter-p.1)"><use xlink:href="#p.1" transform="matrix(1.0 0.0 0.0 1.0 -0.6293204800663345 0.7771459063832841)"></use></g><defs><filter id="shadowFilter-p.1" filterUnits="userSpaceOnUse"><feGaussianBlur in="SourceAlpha" stdDeviation="2.5" result="blur"></feGaussianBlur><feComponentTransfer in="blur" color-interpolation-filters="sRGB"><feFuncR type="linear" slope="0" intercept="0.0"></feFuncR><feFuncG type="linear" slope="0" intercept="0.0"></feFuncG><feFuncB type="linear" slope="0" intercept="0.0"></feFuncB><feFuncA type="linear" slope="1.0" intercept="0"></feFuncA></feComponentTransfer></filter></defs><g id="p.1"><path fill="#000000" fill-opacity="0.0" d="m1.7230971 5.827659l361.35434 0l0 36.346455l-361.35434 0z" fill-rule="evenodd"></path><path fill="#099fae" d="m32.9106 14.760261q-0.390625 0.65625 -0.90625 1.015625q-0.5000019 0.35937595 -1.2968769 0.35937595q-0.65625 0 -1.28125 -0.32812595q-0.625 -0.34375 -1.265625 -0.6875q-0.640625 -0.34375 -1.40625 -0.59375q-0.765625 -0.265625 -1.71875 -0.265625q-1.59375 0 -2.265625 0.59375q-0.671875 0.578125 -0.671875 1.578126q0 0.546875 0.390625 0.953125q0.390625 0.40625 1.203125 0.78125q0.8125 0.359375 1.953125 0.71875q1.15625 0.34375 2.40625 0.78125q1.265625 0.4375 2.515625 1.0625q1.25 0.609375 2.265627 1.625q1.015625 1.015625 1.640625 2.453125q0.625 1.4375 0.625 3.421875q0 2.1875 -0.765625 4.109375q-0.765625 1.90625 -2.21875 3.34375q-1.4531269 1.421875 -3.546877 2.234375q-2.09375 0.796875 -4.734375 0.796875q-1.4375 0 -2.9375 -0.296875q-1.484375 -0.28125 -2.875 -0.8125q-1.375 -0.546875 -2.609375 -1.28125q-1.234375 -0.75 -2.625 -2.140625l2.34375 -3.734375q0.328125 -0.546875 0.90625 -0.859375q0.59375 -0.328125 1.28125 -0.328125q0.828125 0 1.53125 0.453125q0.71875 0.4375 1.453125 0.875q0.734375 0.4375 1.625 0.78125q0.90625 0.328125 2.109375 0.328125q1.546875 0 2.296875 -0.59375q0.75 -0.59375 0.75 -1.953125q0 -0.703125 -0.40625 -1.15625q-0.390625 -0.46875 -1.1875 -0.828125q-0.796875 -0.375 -1.9375 -0.6875q-1.140625 -0.3125 -2.40625 -0.71875q-1.25 -0.40625 -2.5 -1.015625q-1.234375 -0.609375 -2.265625 -1.640625q-1.015625 -1.046875 -1.640625 -2.59375q-0.609375 -1.546875 -0.609375 -3.734375q0 -1.812501 0.71875 -3.531251q0.71875 -1.71875 2.125 -3.046875q1.40625 -1.34375 3.40625 -2.125q2.015625 -0.7812495 4.578125 -0.7812495q1.390625 0 2.734375 0.21875q1.34375 0.203125 2.546875 0.6562495q1.21875 0.4375 2.281252 1.046875q1.078125 0.609375 2.375 1.828125l-1.984375 3.71875zm3.8987274 23.640625l0 -22.390625l4.5 0q0.578125 0 1.015625 0.125q0.4375 0.109375 0.796875 0.40625q0.375 0.296875 0.53125 0.703125q0.171875 0.40625 0.265625 0.890625l-0.046875 0.015625q0.109375 -0.25 1.703125 -1.390625q1.59375 -1.156251 3.53125 -1.156251q1.71875 0 3.1875 1.171876l-0.890625 5.03125q-0.140625 0.765625 -0.625 1.109375q-0.484375 0.34375 -1.140625 0.34375q-0.421875 0 -0.890625 -0.078125q-0.453125 -0.09375 -1.078125 -0.09375q-1.9375 0 -3.015625 1.96875l0 13.34375l-7.84375 0zm24.566864 -22.390625l0 22.390625l-7.859375 0l0 -22.390625l7.859375 0zm0.71875 -4.859376q0 0.90625 -0.375 1.734375q-0.359375 0.8125 -1.0 1.40625q-0.640625 0.578125 -1.46875 0.9375q-0.828125 0.359375 -1.78125 0.359375q-0.9375 0 -1.75 -0.359375q-0.796875 -0.359375 -1.421875 -0.953125q-0.609375 -0.59375 -0.96875 -1.40625q-0.359375 -0.8125 -0.359375 -1.71875q0 -0.9375 0.359375 -1.75q0.359375 -0.8125 0.96875 -1.4218745q0.625 -0.609375 1.421875 -0.953125q0.8125 -0.34375 1.75 -0.34375q0.9375 0 1.765625 0.34375q0.84375 0.34375 1.484375 0.953125q0.640625 0.6093745 1.0 1.4218745q0.375 0.8125 0.375 1.75zm10.354355 27.25l0 -30.796875l11.546875 0q3.125 0 5.375 0.5937495q2.25 0.59375 3.734375 1.734375q1.5 1.125 2.1875 2.765625q0.6875 1.640625 0.6875 3.609376q0 1.109375 -0.328125 2.15625q-0.3125 1.03125 -1.0 1.953125q-0.6875 0.90625 -1.71875 1.625q-1.03125 0.703125 -1.28125 0.375q1.875 0.03125 3.4375 1.828125q1.5625 1.78125 1.5625 4.546875q0 2.03125 -0.796875 3.8125q-0.796875 1.765625 -2.328125 3.0625q-1.515625 1.296875 -3.6875 2.015625q-2.171875 0.71875 -4.921875 0.71875l-12.46875 0zm8.40625 -12.359375l0 5.609375l3.9375 0q1.1875 0 1.859375 -0.265625q0.6875 -0.28125 1.03125 -0.671875q0.359375 -0.40625 0.5 -0.9375q0.140625 -0.53125 0.140625 -1.125q0 -0.65625 -0.15625 -1.125q-0.15625 -0.46875 -0.515625 -0.765625q-0.34375 -0.3125 -1.046875 -0.515625q-0.6875 -0.203125 -1.859375 -0.203125l-3.890625 0zm0 -6.171875l2.703125 0q1.03125 0 1.8125 -0.140625q0.78125 -0.140625 1.25 -0.4375q0.46875 -0.296875 0.703125 -0.796875q0.234375 -0.515625 0.234375 -1.375q0 -0.890625 -0.1875 -1.390626q-0.1875 -0.515625 -0.5625 -0.8125q-0.375 -0.296875 -1.078125 -0.4375q-0.6875 -0.15625 -1.734375 -0.15625l-3.140625 0l0 5.546876zm17.833725 18.53125l0 -31.59375l7.84375 0l-0.140625 10.375q-0.015625 -0.1875 1.4375 -0.84375q1.453125 -0.65625095 3.4375 -0.65625095q1.875 0 3.359375 0.67187595q1.484375 0.671875 2.484375 1.859375q1.015625 1.171875 1.515625 2.765625q0.515625 1.59375 0.515625 3.40625l0 14.015625l-7.859375 0l0 -14.015625q0 -1.21875 -0.484375 -1.796875q-0.484375 -0.59375 -1.453125 -0.59375q-0.828125 0 -1.59375 0.375q-0.75 0.375 -1.21875 0.796875l0 15.234375l-7.84375 0zm38.340607 0q-1.078125 0 -1.765625 -0.359375q-0.671875 -0.359375 -1.078125 -1.40625l0.015625 -0.234375q0.03125 0.109375 -0.734375 0.640625q-0.765625 0.53125 -1.625 0.921875q-0.84375 0.390625 -1.796875 0.5625q-0.953125 0.1875 -2.09375 0.1875q-1.546875 0 -2.859375 -0.40625q-1.296875 -0.421875 -2.25 -1.25q-0.9375 -0.84375 -1.453125 -2.078125q-0.5 -1.25 -0.5 -2.8125q0 -1.28125 0.640625 -2.625q0.640625 -1.34375 2.171875 -2.390625q1.53125 -1.0625 3.984375 -1.734375q2.453125 -0.671875 5.3125 -0.734375l0 -0.0625q0 -1.5 -0.515625 -2.0625q-0.515625 -0.5625 -1.53125 -0.5625q-0.953125 0 -1.5625 0.21875q-0.59375 0.203125 -1.125 0.5q-0.53125 0.28125 -1.15625 0.5625q-0.625 0.28125 -1.515625 0.28125q-0.890625 0 -1.546875 -0.421875q-0.640625 -0.4375 -0.96875 -1.078125l-1.46875 -2.515625q2.515625 -2.21875 4.9375 -3.078125q2.4375 -0.85937595 5.203125 -0.85937595q2.03125 0 3.703125 0.67187595q1.671875 0.671875 2.84375 1.890625q1.171875 1.21875 1.78125 2.875q0.625 1.640625 0.625 3.578125l0 13.78125l-3.671875 0zm-7.125 -5.4375q1.015625 0 1.765625 -0.34375q0.75 -0.359375 1.328125 -0.953125l0 -1.671875q-0.9375 0.046875 -2.046875 0.28125q-1.09375 0.21875 -1.640625 0.5q-0.546875 0.265625 -0.703125 0.53125q-0.15625 0.265625 -0.15625 0.5625q0 0.640625 0.296875 0.875q0.3125 0.21875 1.15625 0.21875zm13.544357 5.4375l0 -22.390625l4.5 0q0.578125 0 1.015625 0.125q0.4375 0.109375 0.796875 0.40625q0.375 0.296875 0.53125 0.703125q0.171875 0.40625 0.265625 0.890625l-0.046875 0.015625q0.109375 -0.25 1.703125 -1.390625q1.59375 -1.156251 3.53125 -1.156251q1.71875 0 3.1875 1.171876l-0.890625 5.03125q-0.140625 0.765625 -0.625 1.109375q-0.484375 0.34375 -1.140625 0.34375q-0.421875 0 -0.890625 -0.078125q-0.453125 -0.09375 -1.078125 -0.09375q-1.9375 0 -3.015625 1.96875l0 13.34375l-7.84375 0zm31.660614 0q-1.078125 0 -1.765625 -0.359375q-0.671875 -0.359375 -1.078125 -1.40625l0.015625 -0.234375q0.03125 0.109375 -0.734375 0.640625q-0.765625 0.53125 -1.625 0.921875q-0.84375 0.390625 -1.796875 0.5625q-0.953125 0.1875 -2.09375 0.1875q-1.546875 0 -2.859375 -0.40625q-1.296875 -0.421875 -2.25 -1.25q-0.9375 -0.84375 -1.453125 -2.078125q-0.5 -1.25 -0.5 -2.8125q0 -1.28125 0.640625 -2.625q0.640625 -1.34375 2.171875 -2.390625q1.53125 -1.0625 3.984375 -1.734375q2.453125 -0.671875 5.3125 -0.734375l0 -0.0625q0 -1.5 -0.515625 -2.0625q-0.515625 -0.5625 -1.53125 -0.5625q-0.953125 0 -1.5625 0.21875q-0.59375 0.203125 -1.125 0.5q-0.53125 0.28125 -1.15625 0.5625q-0.625 0.28125 -1.515625 0.28125q-0.890625 0 -1.546875 -0.421875q-0.640625 -0.4375 -0.96875 -1.078125l-1.46875 -2.515625q2.515625 -2.21875 4.9375 -3.078125q2.4375 -0.85937595 5.203125 -0.85937595q2.03125 0 3.703125 0.67187595q1.671875 0.671875 2.84375 1.890625q1.171875 1.21875 1.78125 2.875q0.625 1.640625 0.625 3.578125l0 13.78125l-3.671875 0zm-7.125 -5.4375q1.015625 0 1.765625 -0.34375q0.75 -0.359375 1.328125 -0.953125l0 -1.671875q-0.9375 0.046875 -2.046875 0.28125q-1.09375 0.21875 -1.640625 0.5q-0.546875 0.265625 -0.703125 0.53125q-0.15625 0.265625 -0.15625 0.5625q0 0.640625 0.296875 0.875q0.3125 0.21875 1.15625 0.21875zm21.653732 5.75q-1.640625 0 -2.9375 -0.484375q-1.28125 -0.5 -2.171875 -1.40625q-0.890625 -0.921875 -1.359375 -2.1875q-0.453125 -1.28125 -0.453125 -2.796875l0 -9.890625l-0.921875 0q-0.8125 0 -1.40625 -0.546875q-0.578125 -0.546875 -0.578125 -1.515625l0 -3.09375l3.4375 -0.671875l1.09375 -4.531251q0.390625 -1.609375 2.171875 -1.609375l4.0625 0l0 6.062501l5.046875 0l0 5.90625l-5.046875 0l0 9.46875q0 0.4375 0.140625 0.640625q0.15625 0.1875 0.390625 0.1875q0.21875 0 0.34375 -0.03125q0.140625 -0.046875 0.28125 -0.125q0.15625 -0.078125 0.390625 -0.1875q0.234375 -0.109375 0.625 -0.109375q0.546875 0 0.890625 0.25q0.359375 0.25 0.609375 0.671875l2.296875 3.578125q-1.9375 1.453125 -3.5625 1.9375q-1.625 0.484375 -3.34375 0.484375zm7.8906097 -0.3125l0 -31.59375l7.84375 0l-0.140625 10.375q-0.015625 -0.1875 1.4375 -0.84375q1.453125 -0.65625095 3.4375 -0.65625095q1.875 0 3.359375 0.67187595q1.484375 0.671875 2.484375 1.859375q1.015625 1.171875 1.515625 2.765625q0.515625 1.59375 0.515625 3.40625l0 14.015625l-7.859375 0l0 -14.015625q0 -1.21875 -0.484375 -1.796875q-0.484375 -0.59375 -1.453125 -0.59375q-0.828125 0 -1.59375 0.375q-0.75 0.375 -1.21875 0.796875l0 15.234375l-7.84375 0zm31.246857 -22.390625l0 22.390625l-7.859375 0l0 -22.390625l7.859375 0zm0.71875 -4.859376q0 0.90625 -0.375 1.734375q-0.359375 0.8125 -1.0 1.40625q-0.640625 0.578125 -1.46875 0.9375q-0.828125 0.359375 -1.78125 0.359375q-0.9375 0 -1.75 -0.359375q-0.796875 -0.359375 -1.421875 -0.953125q-0.609375 -0.59375 -0.96875 -1.40625q-0.359375 -0.8125 -0.359375 -1.71875q0 -0.9375 0.359375 -1.75q0.359375 -0.8125 0.96875 -1.4218745q0.625 -0.609375 1.421875 -0.953125q0.8125 -0.34375 1.75 -0.34375q0.9375 0 1.765625 0.34375q0.84375 0.34375 1.484375 0.953125q0.640625 0.6093745 1.0 1.4218745q0.375 0.8125 0.375 1.75zm24.90123 20.71875q1.296875 0 2.296875 -0.21875q1.015625 -0.234375 1.3905945 -0.390625l0 -3.046875l-2.0468445 0q-0.96875 0 -1.578125 -0.5625q-0.609375 -0.578125 -0.609375 -1.453125l0 -4.546875l12.0155945 0l0 13.546875q-1.53125 1.109375 -2.8125 1.734375q-1.265625 0.625 -2.703125 1.015625q-1.4375 0.390625 -3.0468445 0.578125q-1.609375 0.1875 -3.4375 0.1875q-3.359375 0 -6.234375 -1.1875q-2.875 -1.1875 -4.984375 -3.296875q-2.09375 -2.109375 -3.296875 -4.984375q-1.1875 -2.875 -1.1875 -6.25q0 -3.421875 1.140625 -6.296875q1.140625 -2.890626 3.28125 -5.000001q2.140625 -2.109375 5.125 -3.25q3.0 -1.1562495 6.6875 -1.1562495q1.890625 0 3.5624695 0.3125q1.6875 0.3125 3.109375 0.8749995q1.421875 0.546875 2.609375 1.3125q1.1875 0.75 2.625 2.109375l-2.34375 3.5625q-0.375 0.57812595 -0.953125 0.93750095q-0.5625 0.34375 -1.25 0.34375q-0.84375 0 -1.6875 -0.53125q-0.75 -0.45312595 -1.421875 -0.78125095q-0.65625 -0.328125 -1.3280945 -0.53125q-0.671875 -0.203125 -1.4375 -0.28125q-0.75 -0.09375 -1.734375 -0.09375q-1.71875 0 -3.078125 0.59375q-1.359375 0.59375 -2.3125 1.687501q-0.953125 1.09375 -1.484375 2.65625q-0.53125 1.5625 -0.53125 3.53125q0 2.171875 0.578125 3.828125q0.59375 1.65625 1.609375 2.765625q1.015625 1.109375 2.40625 1.703125q1.390625 0.578125 3.0625 0.578125zm13.933075 6.53125l0 -22.390625l4.5 0q0.578125 0 1.015625 0.125q0.4375 0.109375 0.796875 0.40625q0.375 0.296875 0.53125 0.703125q0.171875 0.40625 0.265625 0.890625l-0.046875 0.015625q0.109375 -0.25 1.703125 -1.390625q1.59375 -1.156251 3.53125 -1.156251q1.71875 0 3.1875 1.171876l-0.890625 5.03125q-0.140625 0.765625 -0.625 1.109375q-0.484375 0.34375 -1.140625 0.34375q-0.421875 0 -0.890625 -0.078125q-0.453125 -0.09375 -1.078125 -0.09375q-1.9375 0 -3.015625 1.96875l0 13.34375l-7.84375 0zm26.58252 -22.71875q2.515625 0 4.59375 0.81250095q2.09375 0.796875 3.609375 2.296875q1.515625 1.5 2.34375 3.625q0.84375 2.125 0.84375 4.734375q0 2.640625 -0.84375 4.796875q-0.828125 2.140625 -2.34375 3.640625q-1.515625 1.5 -3.609375 2.3125q-2.078125 0.8125 -4.59375 0.8125q-2.53125 0 -4.640625 -0.796875q-2.09375 -0.8125 -3.625 -2.3125q-1.53125 -1.515625 -2.375 -3.65625q-0.828125 -2.15625 -0.828125 -4.796875q0 -2.609375 0.828125 -4.734375q0.84375 -2.125 2.375 -3.625q1.53125 -1.515625 3.625 -2.3125q2.109375 -0.79687595 4.640625 -0.79687595zm0 16.78125q1.703125 0 2.515625 -1.21875q0.8125 -1.21875 0.8125 -4.046875q0 -2.828125 -0.8125 -4.03125q-0.8125 -1.21875 -2.515625 -1.21875q-1.765625 0 -2.59375 1.21875q-0.8125 1.203125 -0.8125 4.03125q0 2.828125 0.8125 4.046875q0.828125 1.21875 2.59375 1.21875zm20.590607 -16.453125l0 13.984375q0 1.234375 0.46875 1.8125q0.484375 0.578125 1.453125 0.578125q0.84375 0 1.59375 -0.359375q0.75 -0.359375 1.21875 -0.78125l0 -15.234375l7.859375 0l0 22.390625l-4.671875 0q-1.75 0 -2.296875 -1.609375l0.15625 -0.484375q0.171875 0.25 -0.515625 0.765625q-0.6875 0.5 -1.5 0.875q-0.8125 0.359375 -1.734375 0.5625q-0.921875 0.203125 -2.015625 0.203125q-1.875 0 -3.359375 -0.65625q-1.484375 -0.671875 -2.5 -1.859375q-1.0 -1.203125 -1.515625 -2.78125q-0.5 -1.578125 -0.5 -3.421875l0 -13.984375l7.859375 0zm15.746857 28.96875l0 -28.96875l4.65625 0q0.828125 0 1.4375 0.40625q0.609375 0.40625 0.890625 1.203125l-0.125 0.765625q-0.1875 -0.265625 0.5625 -0.84375q0.765625 -0.59375 1.625 -1.015625q0.875 -0.4375 1.875 -0.67187595q1.0 -0.25 2.1875 -0.25q1.8125 0 3.359375 0.81250095q1.5625 0.8125 2.65625 2.3125q1.109375 1.484375 1.71875 3.578125q0.609375 2.09375 0.609375 4.71875q0 2.46875 -0.703125 4.59375q-0.6875 2.125 -1.96875 3.71875q-1.265625 1.578125 -3.078125 2.484375q-1.796875 0.890625 -3.96875 0.890625q-1.765625 0 -3.015625 -0.5q-1.234375 -0.515625 -1.15625 -0.8125l0.28125 7.578125l-7.84375 0zm10.9375 -22.984375q-0.578125 0 -1.03125 0.109375q-0.453125 0.109375 -0.828125 0.3125q-0.375 0.1875 -0.71875 0.5q-0.34375 0.3125 -0.515625 0.515625l0 8.1875q0.359375 0.390625 1.015625 0.640625q0.65625 0.25 1.40625 0.25q0.671875 0 1.203125 -0.25q0.546875 -0.265625 0.96875 -0.859375q0.421875 -0.59375 0.6875 -1.65625q0.265625 -1.078125 0.265625 -2.71875q0 -1.546875 -0.21875 -2.546875q-0.21875 -1.015625 -0.546875 -1.546875q-0.328125 -0.53125 -0.734375 -0.734375q-0.40625 -0.203125 -0.953125 -0.203125z" fill-rule="nonzero"></path></g></g></svg>

